# xmcd
#
# Track frame offsets: 
#        150
#        17581
#        35603
#        51651
#        66611
#        82788
#        98126
#        113253
#        129283
#        145051
#        158188
#        173263
#        189511
#        206143
#        218921
#        231446
#        245253
#        261156
#
# Disc length: 3727 seconds
#
# Revision: 3
# Processed by: cddbd v1.5.2PL0 Copyright (c) Steve Scherf et al.
# Submitted via: ExactAudioCopy v0.99pb4
#
DISCID=f50e8d12
DTITLE=Banda 40 Graus - Banda 40 Graus
DYEAR=2008
DGENRE=Country
TTITLE0=Beber, Cair e Levantar
TTITLE1=Coração
TTITLE2=Um Cantinho do Seu Coração
TTITLE3=Chora Alma Minha
TTITLE4=Vida de Cão
TTITLE5=Amor Dividido
TTITLE6=Cheiro de Shampoo
TTITLE7=Meu Coração Chora
TTITLE8=Voando Sem Asa
TTITLE9=Me Leva Pra Casa
TTITLE10=Como Um Anjo
TTITLE11=Meu Gostoso Bombom
TTITLE12=Toma Toma
TTITLE13=Socorro
TTITLE14=Meu Mel
TTITLE15=Sem Saida
TTITLE16=Amor Desencontrado
TTITLE17=Estou Mal
EXTD=YEAR: 2008
EXTT0=
EXTT1=
EXTT2=
EXTT3=
EXTT4=
EXTT5=
EXTT6=
EXTT7=
EXTT8=
EXTT9=
EXTT10=
EXTT11=
EXTT12=
EXTT13=
EXTT14=
EXTT15=
EXTT16=
EXTT17=
PLAYORDER=
